<svg xmlns="http://www.w3.org/2000/svg" xmlns:xlink="http://www.w3.org/1999/xlink" width="49.328" height="40.509" viewBox="0 0 49.328 40.509">
  <defs>
    <clipPath id="clip-path">
      <rect id="Rechteck_5" data-name="Rechteck 5" width="49.328" height="40.509" fill="#fff"/>
    </clipPath>
  </defs>
  <g id="Gruppe_7" data-name="Gruppe 7" clip-path="url(#clip-path)">
    <path id="Pfad_17" data-name="Pfad 17" d="M24.05,12.465C11.54,12.148,3.068,1.934,3.068,1.934s-4.315,8.195,3.048,13.48a8.032,8.032,0,0,1-4.3-1.128S.93,21.887,9.6,24.3c0,0-.574.633-4.236.336a9.812,9.812,0,0,0,9.274,6.928S10.036,36.525,0,35.99c0,0,15.915,10.778,32.8-.959,5.729-3.983,12.544-14.926,11.6-24.942a16.886,16.886,0,0,0,4.929-5.206s-1.327.545-2.7.938a14.485,14.485,0,0,1-2.8.527s3.781-2.613,4.2-5.543c0,0-4.127,2.245-6.286,2.408l-.074,0A10.252,10.252,0,0,0,24.2,12.465Z" transform="translate(0 0)" fill="#fff"/>
  </g>
</svg>
