<svg xmlns="http://www.w3.org/2000/svg" xmlns:xlink="http://www.w3.org/1999/xlink" width="48.674" height="33.622" viewBox="0 0 48.674 33.622">
  <defs>
    <clipPath id="clip-path">
      <rect id="Rechteck_6" data-name="Rechteck 6" width="48.674" height="33.622" fill="#fff"/>
    </clipPath>
  </defs>
  <g id="Gruppe_9" data-name="Gruppe 9" clip-path="url(#clip-path)">
    <path id="Pfad_18" data-name="Pfad 18" d="M46.489,2.926C44.8.778,41.754.316,38.208.2,31.928,0,24.895,0,24.337,0S16.746,0,10.466.2C6.921.316,3.872.778,2.186,2.926-.412,6.234.028,16.811.028,16.811S-.412,27.387,2.185,30.7c1.687,2.148,4.735,2.611,8.281,2.724,6.28.2,13.314.2,13.871.2s7.591,0,13.871-.2c3.545-.113,6.594-.576,8.281-2.724,2.6-3.308,2.157-13.884,2.157-13.884s.44-10.576-2.157-13.885M19.534,24.18V9.7l12.649,7.241Z" transform="translate(0 0)" fill="#fff"/>
  </g>
</svg>
