<svg xmlns="http://www.w3.org/2000/svg" xmlns:xlink="http://www.w3.org/1999/xlink" width="324.369" height="74.004" viewBox="0 0 324.369 74.004">
  <defs>
    <clipPath id="clip-path">
      <rect id="Rechteck_2" data-name="Rechteck 2" width="324.369" height="74.004" fill="none"/>
    </clipPath>
  </defs>
  <g id="Gruppe_1" data-name="Gruppe 1" clip-path="url(#clip-path)">
    <path id="Pfad_1" data-name="Pfad 1" d="M0,10.135H12.688v9.838l-.5-.5C14.813,12.65,21.743,8.681,28.729,8.681c11.738,0,19.172,7.825,19.172,21.8V67.036H34.767V33.219c0-9.055-4.08-13.414-10.509-13.414-6.54,0-11.068,5.03-11.068,13.974V67.036H0Z" transform="translate(0 5.515)" fill="#fff"/>
    <path id="Pfad_2" data-name="Pfad 2" d="M34.489,52.446C34.489,41.715,42.37,37.132,55,34.84c8.719-1.622,13.974-2.18,13.974-7.993,0-4.584-3.465-7.154-9.166-7.154-6.093,0-10.4,2.906-10.621,8.608H36.334c.224-12.242,10.229-19.619,23.7-19.619,12.409,0,22.023,6.2,22.023,18.165V52.894c0,2.515.615,4.136,3.578,4.136a8.555,8.555,0,0,0,2.626-.391V66.7a16.619,16.619,0,0,1-6.036,1.063c-7.1,0-10.788-4.193-11.683-10.118l1.119.224c-3.689,6.427-10.677,10.62-19.4,10.62-10.229,0-17.774-5.645-17.774-16.042m34.487-2.571v-11.4c-2.739,2.628-5.421,3.634-11.625,5.087-6.317,1.509-9.67,3.352-9.67,7.936,0,4.3,2.906,6.093,7.321,6.093a15.842,15.842,0,0,0,13.974-7.714" transform="translate(21.911 5.516)" fill="#fff"/>
    <path id="Pfad_3" data-name="Pfad 3" d="M77.409,56.732V26.549H68.465V15.65h8.944V0H90.6V15.65h11.459v10.9H90.6V55.614c0,5.647,2.515,7.323,6.764,7.323a18.045,18.045,0,0,0,5.925-.95v10.62a27.076,27.076,0,0,1-9,1.4c-11.514,0-16.88-5.311-16.88-17.272" transform="translate(43.497 0)" fill="#fff"/>
    <path id="Pfad_4" data-name="Pfad 4" d="M94.784,46.237V9.57h13.19V43.387c0,9.055,4.024,13.414,10.4,13.414,6.706,0,11.066-5.143,11.066-14.085V9.57h13.136v56.9H129.886V56.41l.559.67a17.325,17.325,0,0,1-16.433,10.844c-11.683,0-19.228-7.769-19.228-21.688" transform="translate(60.218 6.08)" fill="#fff"/>
    <path id="Pfad_5" data-name="Pfad 5" d="M131.6,10.069H144.23V20.745l-.392-.615c2.795-7.545,7.882-11.346,14.589-11.346a18.6,18.6,0,0,1,5.03.559V21.472a24.534,24.534,0,0,0-5.2-.615c-8.72,0-13.472,5.254-13.472,13.526V66.97H131.6Z" transform="translate(83.605 5.581)" fill="#fff"/>
    <path id="Pfad_6" data-name="Pfad 6" d="M152.858,38.53c0-17.1,10-29.848,26.662-29.848,15.818,0,26.214,11.29,26.214,29.064v4.249H166.272c.335,8.831,5.423,15.483,14.142,15.483,5.7,0,11.011-2.517,12.3-7.547h12.353c-2.124,11.123-12.074,18.558-25.1,18.558-16.489,0-27.109-12.688-27.109-29.959m39.517-6.093c-.5-7.49-5.534-12.744-12.912-12.744-7.768,0-12.52,5.478-13.19,12.744Z" transform="translate(97.113 5.516)" fill="#fff"/>
    <rect id="Rechteck_1" data-name="Rechteck 1" width="15.204" height="15.035" transform="translate(309.166 57.46)" fill="#fff"/>
  </g>
</svg>
